<svg version="1.1" xmlns="http://www.w3.org/2000/svg" style="display: block;" viewBox="0 0 1200 1200" width="300" height="300">
<path transform="translate(0,0)" fill="rgb(16,17,19)" d="M 0 0 L 1200 0 L 1200 1200 L 0 1200 L 0 0 z"/>
<path transform="translate(0,0)" fill="rgb(254,254,254)" d="M 500.652 301.966 C 539.365 300.856 578.384 301.569 617.12 302.105 L 617.046 665.963 C 587.418 666.138 557.789 666.144 528.161 665.981 C 527.66 606.21 529.026 546.439 532.259 486.754 C 535.201 460.52 534.92 433.701 537.555 407.307 C 528.324 432.482 520.667 458.486 511.923 483.867 C 490.922 544.541 470.28 605.338 449.998 666.256 L 390.289 666.015 C 385.128 643.004 375.3 619.875 367.735 597.499 L 331.814 492.091 C 322.412 464.701 312.698 437.558 304.843 409.669 C 304.146 433.348 306.596 457.636 307.545 481.357 C 310.014 543.04 313.611 604.196 312.177 665.989 C 282.741 666.144 253.304 666.127 223.868 665.939 L 223.778 302.112 C 262.516 301.681 301.257 301.674 339.994 302.09 C 345.366 321.259 352.114 340.191 358.167 359.165 L 397.026 480.413 C 404.691 504.331 415.657 529.416 418.916 554.328 C 448.76 471.199 473.403 385.995 500.652 301.966 z"/>
<path transform="translate(0,0)" fill="rgb(254,254,254)" d="M 812.315 297.445 C 849.405 297.032 886.933 304.754 916.597 328.201 C 950.129 354.705 961.865 387.93 966.759 428.903 L 879.209 428.921 C 878.248 413.608 876.016 397.911 866.129 385.514 C 856.782 373.795 842.971 368.36 828.395 366.735 C 811.506 364.851 792.537 366.352 778.941 377.506 C 760.285 392.811 755.106 420.002 752.719 442.758 C 748.875 479.401 746.949 554.939 771.151 584.056 C 780.436 595.226 794.352 600.243 808.478 601.453 C 825.653 602.924 847.001 599.959 860.408 588.51 C 874.242 576.697 877.173 559.224 878.442 542.083 L 905.5 542.005 C 925.608 541.916 945.716 542.035 965.821 542.362 C 963.581 573.838 955.944 600.458 934.406 624.371 C 907.341 654.419 867.848 668.406 828.198 670.462 C 786.484 672.624 745.506 664.135 713.841 635.368 C 677.612 602.455 664.48 556.95 662.179 509.376 C 659.338 450.635 663.599 388.182 705.295 342.624 C 733.984 311.278 770.866 299.325 812.315 297.445 z"/>
<path transform="translate(0,0)" fill="rgb(0,122,254)" d="M 506.101 696.336 C 527.937 693.825 552.685 699.509 570.11 713.068 C 590.916 729.259 603.35 753.882 606.467 779.844 C 610.329 812.016 606.529 849.49 585.624 875.665 C 571.703 893.096 551.027 903.5 529.05 906.091 C 503.597 906.693 481.549 905.395 460.374 889.442 C 439.865 873.99 429.556 851.063 426.051 826.213 C 421.53 794.155 424.491 756.069 444.614 729.421 C 460.098 708.916 481.341 699.774 506.101 696.336 z"/>
<path transform="translate(0,0)" fill="rgb(16,17,19)" d="M 510.82 734.425 C 518.237 734.263 526.67 734.258 533.29 738.003 C 543.146 743.579 548.966 755.856 551.744 766.341 C 557.838 789.336 558.206 830.678 545.695 851.491 C 539.315 862.105 531.03 866.988 519.271 869.933 C 511.387 870.504 502.034 867.23 495.736 862.606 C 484.286 854.198 479.402 839.582 477.503 826.055 C 474.396 803.927 474.372 765.155 488.568 746.744 C 494.615 738.903 501.218 735.775 510.82 734.425 z"/>
<path transform="translate(0,0)" fill="rgb(0,122,254)" d="M 631.753 698.787 L 678.444 698.821 C 710.778 698.828 739.728 698.837 765.177 722.204 C 786.841 742.096 795.166 770.044 796.24 798.739 C 797.351 828.432 788.847 855.816 768.533 877.789 C 742.188 903.272 713.007 905.225 678.366 905.161 L 631.806 905.173 C 631.371 836.45 630.6 767.498 631.753 698.787 z"/>
<path transform="translate(0,0)" fill="rgb(16,17,19)" d="M 682.306 735.817 C 696.736 735.705 712.166 734.953 724.517 743.73 C 735.679 751.663 740.56 764.891 742.606 777.947 C 746.372 801.963 745.61 833.053 730.923 853.196 C 729.555 854.667 728.138 856.093 726.675 857.469 C 715.203 868.077 697.282 866.461 682.874 865.991 C 680.885 822.804 682.222 779.052 682.306 735.817 z"/>
<path transform="translate(0,0)" fill="rgb(0,122,254)" d="M 235.586 698.497 L 275.243 698.845 C 284.426 714.265 292.924 730.134 301.989 745.634 C 317.2 771.643 332.925 797.544 346.676 824.371 C 349.84 783.488 347.967 740.147 347.752 699.022 C 364.971 698.603 382.226 698.869 399.449 698.942 C 398.261 717.564 398.922 736.558 398.918 755.214 L 398.959 851.22 C 398.988 866.45 400.976 889.324 398.686 903.803 C 396.261 905.309 394.055 904.838 391.25 904.838 L 348.116 905.233 C 332.954 879.343 317.992 853.336 303.231 827.215 C 294.521 811.838 286.079 793.474 274.79 779.905 C 275.925 794.712 275.118 809.994 275.064 824.855 L 274.831 904.871 C 257.882 905.149 240.93 905.26 223.979 905.202 L 223.803 761.321 C 223.793 745.14 221.879 713.547 224.479 699.562 C 227.701 698.029 232.04 698.508 235.586 698.497 z"/>
<path transform="translate(0,0)" fill="rgb(0,122,254)" d="M 819.205 698.441 C 867.197 700.303 915.505 697.974 963.554 699.032 C 962.942 711.246 963.434 723.63 963.508 735.862 L 869.951 736.035 L 870.081 780.503 C 895.919 778.712 922.956 779.579 948.871 780.244 C 949.145 792.843 948.847 805.481 948.756 818.083 C 923.114 818.229 896.867 816.807 871.296 818.098 C 869.765 820.112 870.145 822.278 870.055 824.75 C 870.042 838.558 869.959 852.365 869.807 866.172 C 900.951 865.509 932.369 866.258 963.524 866.661 C 963.346 879.488 963.379 892.316 963.622 905.141 L 819.01 905.077 L 818.98 761.778 C 818.992 741.236 816.701 718.757 819.205 698.441 z"/>
</svg>