<svg class="h-8 w-8 lg:h-10 lg:w-10 hover:scale-105 hover:brightness-110" xmlns="http://www.w3.org/2000/svg" viewBox="0 0 288 288"><mask id=":r2:" fill="#fff"><path d="M-.46 48.21v191.46c0 26.66 21.61 48.27 48.27 48.27h191.46c26.66 0 48.27-21.61 48.27-48.27V48.21c0-26.66-21.61-48.27-48.27-48.27H47.81C21.15-.06-.46 21.55-.46 48.21ZM35.73 154.4l.07-106.24c7.96 0 15.15 3.23 20.38 8.44a28.735 28.735 0 0 1 8.43 20.38v38.82h50.46c0 15.42-12.5 27.91-27.91 27.91H64.61v1.7c0 54.78 50.08 53.84 50.08 53.84h22.11l-24.38 28.45c-77.82-1.38-76.69-73.3-76.69-73.3Zm194.47 73.32c-7.44 0-14.5-3.26-19.32-8.92l-6.64-7.81-15.17-17.82-21.81 25.63a25.365 25.365 0 0 1-19.32 8.92h-25.47l24.39-28.47h.16l23.61-27.73-5.01-5.88-42.43-49.84h25.14c7.43 0 14.49 3.26 19.31 8.92l16.46 19.33 4.96 5.83 7.68-9.02 13.75-16.14a25.366 25.366 0 0 1 19.31-8.92h25.14l-29.54 34.7-17.9 21.02 15.17 17.82 32.67 38.38H230.2Z"></path></mask><rect fill="url(#:r3:)" mask="url(#:r2:)" width="100%" height="100%"></rect><linearGradient id=":r3:" gradientTransform="rotate(90)"><stop offset="0.2" stop-color="#5BBE83"></stop><stop offset="1" stop-color="#00888F"></stop></linearGradient></svg>